<?xml version="1.0" standalone="no"?>
<!DOCTYPE svg PUBLIC "-//W3C//DTD SVG 20010904//EN"
 "http://www.w3.org/TR/2001/REC-SVG-20010904/DTD/svg10.dtd">
<svg version="1.0" xmlns="http://www.w3.org/2000/svg"
 width="236.000000pt" height="338.000000pt" viewBox="0 0 236.000000 338.000000"
 preserveAspectRatio="xMidYMid meet">

<g transform="translate(0.000000,338.000000) scale(0.100000,-0.100000)"
fill="#000000" stroke="none">
<path d="M855 3358 c-27 -11 -63 -27 -80 -36 -40 -21 -55 -28 -89 -42 -24 -9
-27 -13 -15 -21 7 -5 9 -9 4 -9 -6 0 -22 -11 -37 -25 -15 -14 -30 -25 -33 -25
-3 0 -13 -4 -23 -9 -11 -7 -12 -11 -4 -11 16 0 -40 -82 -74 -107 -37 -28 -28
-36 15 -14 21 11 41 17 45 14 3 -3 11 -1 18 4 15 11 48 24 48 19 0 -2 -24 -20
-53 -39 -36 -24 -69 -59 -101 -107 -51 -76 -61 -103 -70 -190 -6 -59 2 -49 25
30 34 118 117 219 216 266 72 34 87 26 24 -13 -28 -18 -51 -38 -52 -45 0 -7
-2 -23 -3 -36 -2 -17 1 -21 15 -17 24 8 15 -27 -21 -80 -45 -68 -69 -121 -60
-135 6 -10 9 -8 14 6 3 12 4 9 2 -6 -2 -14 -7 -34 -12 -45 -7 -18 -6 -18 7 -5
8 8 23 32 34 53 19 37 44 53 30 20 -15 -38 -25 -90 -25 -142 0 -51 46 -271 57
-271 2 0 2 26 -1 58 l-6 57 15 -45 c8 -25 27 -86 41 -137 l27 -92 36 -3 c36
-3 111 28 111 46 0 4 -6 6 -13 3 -7 -3 -25 0 -40 7 -21 8 -24 14 -17 26 9 13
12 13 21 -2 11 -20 55 -24 79 -8 13 9 13 12 -2 21 -10 5 -18 14 -18 20 0 6 7
6 18 1 9 -5 22 -8 28 -5 5 2 25 -10 43 -27 19 -16 38 -27 43 -24 10 6 -54 60
-83 69 -10 4 -19 10 -19 15 0 16 37 -3 85 -43 25 -21 45 -47 45 -57 0 -26 16
-26 30 -1 16 32 12 51 -24 105 -32 48 -39 53 -119 80 -64 21 -100 27 -141 24
-31 -1 -57 0 -57 5 -1 4 -2 13 -3 20 -1 6 -8 11 -15 9 -9 -2 -11 3 -7 13 3 9
6 18 6 21 0 2 6 1 13 -1 16 -7 39 47 31 71 -5 16 -4 16 5 4 9 -13 11 -13 11 3
0 9 5 17 10 17 6 0 10 7 10 15 0 8 4 15 8 15 13 0 28 41 26 69 -1 14 3 29 7
35 5 6 18 23 29 37 14 19 37 31 90 43 66 16 88 16 144 -1 14 -4 18 -1 13 10
-4 11 -2 14 9 10 7 -3 14 -8 14 -12 0 -12 48 -31 79 -31 38 0 98 -61 112 -114
11 -45 45 -145 64 -190 12 -27 11 -32 -10 -48 -13 -10 -29 -18 -37 -18 -16 0
-58 -36 -58 -50 0 -6 5 -10 12 -10 6 0 4 -8 -7 -20 -13 -14 -16 -28 -11 -55 4
-19 13 -35 20 -35 7 0 22 -11 32 -25 10 -14 24 -25 29 -25 21 0 82 -76 104
-128 26 -63 27 -91 7 -232 -15 -108 -29 -159 -54 -198 -8 -12 -12 -31 -9 -43
6 -24 -37 -90 -82 -126 -15 -12 -52 -29 -84 -38 -66 -19 -150 -9 -197 25 -33
24 -90 106 -90 131 0 10 -6 24 -13 31 -32 32 -46 66 -45 109 1 65 -10 105 -43
154 -16 24 -29 48 -29 55 0 6 -16 32 -35 57 l-35 46 0 -34 c0 -84 -47 -277
-73 -304 -7 -6 -23 -27 -36 -46 -13 -19 -34 -42 -48 -53 -25 -18 -25 -18 -14
2 6 11 11 32 11 46 0 13 6 37 14 53 8 15 20 43 27 61 14 39 29 42 30 5 1 -23
2 -24 6 -6 2 12 11 27 19 33 18 16 18 34 -1 26 -18 -7 -35 23 -35 61 0 16 -5
34 -11 40 -18 18 -31 93 -18 109 8 10 8 14 0 14 -6 0 -11 -5 -11 -11 0 -5 -4
-7 -10 -4 -5 3 -10 13 -10 21 0 8 -18 43 -39 77 -34 55 -101 234 -101 271 0 8
-7 16 -15 20 -13 4 -14 -1 -9 -34 10 -64 -2 -46 -19 28 -26 110 -46 232 -53
315 -4 42 -11 77 -16 77 -5 0 -17 -14 -26 -31 -9 -17 -37 -61 -61 -97 -52 -78
-108 -194 -115 -237 -3 -17 -17 -58 -31 -92 -14 -35 -25 -73 -25 -85 0 -13 -7
-36 -15 -52 -8 -15 -15 -37 -15 -48 0 -11 -5 -28 -11 -39 -6 -12 -12 -39 -14
-62 -5 -57 -15 -97 -26 -97 -5 0 -9 -413 -9 -980 l0 -980 375 0 376 0 5 28 c3
15 16 34 28 43 21 16 22 16 23 -10 2 -64 -2 -61 71 -61 54 0 72 4 85 18 10 10
17 24 17 31 0 7 4 10 9 7 4 -3 6 -17 3 -31 l-4 -26 297 3 c281 3 298 4 301 21
4 27 14 34 15 11 1 -10 1 -22 0 -26 -2 -12 187 -9 194 2 4 6 16 8 28 6 12 -3
7 1 -12 10 -33 15 -33 15 -13 30 18 13 20 19 11 42 -17 40 -20 112 -6 112 7 0
4 5 -6 11 -19 11 -13 33 6 23 7 -3 4 1 -6 9 -12 10 -15 17 -7 22 6 4 18 -1 25
-11 17 -22 20 -11 5 17 -6 10 -17 19 -24 19 -8 0 -20 8 -27 17 -8 9 -9 14 -3
10 12 -7 23 17 29 58 1 11 -8 31 -21 44 -32 32 -30 42 6 34 25 -5 29 -3 24 11
-4 11 -1 16 10 16 19 0 21 -21 4 -38 -10 -10 -9 -16 4 -28 20 -20 50 -12 42
11 -4 10 0 15 12 15 11 0 15 -4 9 -8 -5 -4 -10 -20 -9 -37 0 -26 4 -30 25 -27
16 1 20 -1 11 -7 -10 -6 -4 -17 25 -45 21 -19 46 -36 56 -36 9 0 17 -4 17 -10
0 -14 -5 -13 -52 10 -23 11 -48 20 -55 20 -8 0 -16 7 -20 16 -4 10 -13 14 -26
10 -15 -3 -17 -2 -9 6 8 8 7 15 -6 24 -24 19 -37 17 -21 -3 8 -9 13 -18 12
-20 -8 -10 -1 -23 12 -23 8 0 15 -9 15 -20 0 -11 4 -20 10 -20 5 0 6 8 3 17
-5 12 -1 11 15 -5 12 -12 22 -27 22 -32 0 -6 6 -13 14 -16 14 -5 30 -44 18
-44 -3 0 -13 7 -23 16 -19 17 -55 12 -44 -6 4 -6 12 -8 18 -4 7 3 4 -1 -6 -9
-15 -12 -16 -19 -8 -36 18 -32 13 -36 -10 -7 -28 36 -37 25 -10 -12 12 -17 21
-45 21 -64 0 -18 3 -43 6 -55 6 -22 8 -22 240 -23 l234 0 0 685 0 685 -54 -1
c-29 -1 -59 2 -65 5 -24 15 2 26 60 26 l60 0 -1 198 c-1 181 -3 200 -20 215
-13 11 -20 12 -23 4 -2 -7 -3 0 -1 15 4 31 -20 85 -31 69 -9 -16 -25 -3 -25
20 0 10 -4 19 -10 19 -5 0 -14 10 -21 21 -8 16 -8 20 0 14 8 -4 10 3 6 25 -3
18 -1 38 4 44 19 23 -34 206 -69 238 -19 18 -20 18 -20 1 0 -13 -3 -14 -12 -5
-17 17 -33 15 -18 -3 17 -20 0 -19 -30 2 -24 17 -24 16 3 -16 15 -18 27 -38
27 -44 0 -16 -95 79 -111 111 -8 15 -24 36 -37 47 -13 11 -45 47 -71 80 -27
33 -67 80 -90 105 -23 25 -47 60 -53 78 -7 17 -16 32 -20 32 -4 0 -8 6 -8 14
0 8 -9 24 -21 37 -16 18 -19 20 -15 6 3 -10 2 -16 -3 -13 -4 3 -8 19 -9 35 0
16 -13 47 -27 70 -15 22 -24 45 -20 51 5 9 1 10 -15 5 -18 -6 -22 -4 -17 8 3
9 -1 21 -10 29 -9 7 -25 33 -35 56 -11 24 -44 69 -74 100 -30 31 -54 57 -54
58 0 1 10 0 21 -3 26 -7 120 -101 197 -198 61 -76 89 -105 98 -105 4 0 -5 15
-20 34 -14 19 -26 39 -26 45 0 6 -6 11 -14 11 -8 0 -19 12 -24 28 -21 58 -153
189 -238 237 -50 28 -54 34 -36 39 12 4 34 0 52 -9 51 -26 46 -9 -6 21 l-47
28 26 9 c20 6 33 4 54 -11 45 -31 49 -31 49 -11 0 10 -4 19 -9 19 -4 0 -23 11
-40 24 -18 13 -49 29 -69 35 -21 7 -40 16 -43 20 -2 5 -27 6 -55 3 -45 -4 -50
-3 -44 13 6 14 3 16 -14 11 -11 -4 -23 -2 -27 4 -4 6 -63 10 -158 9 -128 0
-160 -4 -202 -21z m450 -68 c-3 -5 -10 -10 -16 -10 -5 0 -9 5 -9 10 0 6 7 10
16 10 8 0 12 -4 9 -10z m-165 -20 c5 0 14 -9 20 -20 10 -19 8 -20 -26 -16 -21
3 -44 12 -53 22 -15 15 -14 16 8 9 18 -5 22 -4 16 6 -6 9 -3 11 9 6 10 -4 22
-7 26 -7z m255 0 c-27 -12 -43 -12 -25 0 8 5 22 9 30 9 10 0 8 -3 -5 -9z
m-303 -51 c9 -5 25 -9 35 -9 30 0 45 -20 28 -37 -12 -12 -21 -10 -64 12 -28
14 -57 25 -65 25 -10 0 -13 6 -10 15 6 15 39 12 76 -6z m-482 -29 c0 -5 -5
-10 -11 -10 -5 0 -7 5 -4 10 3 6 8 10 11 10 2 0 4 -4 4 -10z m436 -45 c25 -19
3 -19 -46 0 l-35 13 31 1 c16 1 39 -6 50 -14z m-26 -46 c0 -11 9 -28 20 -37
11 -10 23 -30 26 -46 4 -25 3 -28 -10 -16 -9 7 -13 16 -10 21 3 5 0 9 -6 9 -6
0 -8 -14 -6 -36 l5 -35 -26 16 c-36 24 -40 11 -4 -16 17 -13 31 -28 31 -33 0
-8 -3 -8 -8 0 -9 13 -54 26 -46 13 3 -5 12 -9 21 -9 13 0 13 -3 3 -15 -10 -12
-16 -13 -27 -4 -11 10 -12 9 -7 -5 12 -30 -25 -17 -74 26 -26 24 -49 44 -51
45 -2 2 -2 5 1 8 3 3 26 -11 51 -30 25 -19 48 -35 51 -35 13 0 0 46 -16 58
-10 7 -18 19 -18 27 0 7 -12 23 -27 35 -16 12 -23 19 -16 16 6 -4 13 -1 15 5
2 7 12 7 31 0 16 -6 36 -11 45 -11 13 0 13 2 -4 15 -19 15 -19 15 1 30 19 15
20 14 26 -12 7 -28 7 -28 8 5 1 35 21 46 21 11z m-165 -29 c3 -5 3 -10 0 -10
-13 0 -65 34 -65 42 0 10 56 -18 65 -32z m315 -2 c0 -2 -9 -25 -20 -53 l-19
-50 -1 41 c0 37 13 64 32 64 4 0 8 -1 8 -2z m277 -91 c51 -58 68 -67 44 -23
-16 27 -17 34 -5 29 8 -3 19 -14 25 -24 5 -11 16 -19 24 -19 8 0 22 -11 31
-25 9 -14 21 -22 27 -18 6 3 7 1 3 -6 -4 -6 2 -27 14 -46 12 -19 18 -35 13
-35 -5 0 -16 12 -25 28 -10 15 -18 21 -18 13 0 -8 11 -29 25 -47 14 -18 25
-37 25 -41 0 -5 9 -28 20 -51 11 -22 20 -46 20 -52 0 -11 50 -90 57 -90 2 0
-4 14 -12 31 -21 40 -12 50 11 12 64 -103 108 -163 142 -197 22 -21 38 -44 36
-50 -3 -7 28 -43 68 -80 40 -38 73 -72 73 -76 0 -5 3 -12 8 -16 33 -34 -49 -5
-98 34 -11 9 6 -11 39 -44 32 -33 63 -69 69 -79 10 -19 10 -19 -17 -2 -15 10
-31 16 -34 12 -4 -4 1 -11 11 -16 9 -6 17 -20 17 -32 0 -13 6 -32 14 -43 24
-34 76 -141 76 -155 0 -9 -3 -10 -8 -3 -4 5 -25 23 -47 40 l-40 29 18 -28 c10
-15 15 -32 12 -37 -3 -6 2 -10 12 -10 14 0 15 -2 4 -9 -10 -7 -9 -11 6 -22 43
-31 28 -33 -31 -4 -35 16 -61 34 -58 39 3 5 0 6 -6 2 -5 -3 -13 0 -16 6 -3 7
-3 3 0 -9 6 -27 -7 -30 -22 -5 -6 9 -35 30 -65 47 -30 16 -85 51 -123 78 -128
91 -106 53 32 -55 54 -42 66 -66 15 -31 -52 37 -54 35 -27 -18 38 -73 40 -183
6 -278 -19 -53 -21 -69 -12 -97 9 -26 8 -57 -5 -136 -9 -57 -20 -107 -26 -112
-5 -6 -9 -28 -9 -50 l-1 -41 -16 29 c-8 16 -17 48 -18 70 -2 23 -5 48 -8 56
-15 42 -16 69 -4 73 9 3 9 7 0 17 -9 9 -13 8 -22 -8 -11 -21 -5 -102 10 -116
5 -6 9 -19 8 -30 0 -13 -9 0 -24 32 -13 28 -29 52 -35 52 -5 0 -20 -11 -32
-25 -12 -14 -25 -25 -29 -25 -11 0 -5 28 9 42 7 7 12 18 12 25 0 7 3 13 8 13
9 0 41 72 49 112 3 16 12 32 20 35 8 3 11 13 8 24 -4 10 0 28 8 39 13 18 15
19 21 5 3 -9 10 -14 15 -10 5 3 12 1 16 -5 10 -16 20 -12 38 19 64 109 24 300
-89 421 -129 139 -183 271 -223 540 -15 98 -64 201 -126 262 -47 47 -55 79
-13 57 18 -10 20 -9 15 5 -7 19 -7 19 61 -27 51 -35 72 -32 42 6 -12 15 -18
26 -13 25 11 -4 14 8 6 29 -4 9 -2 18 5 21 16 5 -3 49 -31 73 -12 10 -17 18
-10 19 6 0 29 -19 50 -43z m-632 3 c4 -6 -6 -7 -27 -3 -44 8 -48 13 -10 13 17
0 34 -4 37 -10z m-195 -190 c-8 -5 -19 -10 -25 -10 -5 0 -3 5 5 10 8 5 20 10
25 10 6 0 3 -5 -5 -10z m17 -142 c-3 -8 -6 -5 -6 6 -1 11 2 17 5 13 3 -3 4
-12 1 -19z m6 -70 c-3 -6 -1 -8 5 -4 6 3 18 -7 28 -23 10 -17 21 -28 25 -25
13 8 22 -17 10 -29 -6 -6 -11 -29 -11 -51 l-1 -41 -15 34 c-8 19 -20 39 -28
45 -17 14 -32 71 -15 61 8 -6 8 -2 0 13 -6 11 -11 33 -10 49 0 27 0 28 10 5 5
-13 6 -29 2 -34z m217 -208 c12 -8 11 -10 -7 -11 -13 -1 -28 -2 -35 -3 -6 -1
-13 5 -15 12 -5 14 35 16 57 2z m50 -42 c0 -11 -28 -10 -35 1 -3 6 4 9 15 8
11 -1 20 -5 20 -9z m444 -63 c4 -10 -1 -15 -14 -15 -13 0 -18 5 -14 15 4 8 10
15 14 15 4 0 10 -7 14 -15z m-845 -501 c-16 -64 -69 -177 -69 -147 0 33 68
208 77 199 2 -2 -2 -25 -8 -52z m111 8 c-6 -15 -18 -40 -26 -55 -8 -16 -14
-35 -14 -43 0 -8 -5 -14 -11 -14 -7 0 -8 7 -4 18 4 9 7 27 6 40 0 15 3 21 11
16 7 -5 9 -2 6 8 -4 8 3 31 14 49 24 39 38 23 18 -19z m895 -11 c-9 -28 -21
-51 -25 -51 -10 0 -4 19 17 60 7 14 13 31 13 39 0 8 3 12 6 8 3 -3 -2 -28 -11
-56z m815 -24 c0 -5 -4 -5 -10 -2 -5 3 -10 13 -10 22 0 13 -3 13 -15 3 -13
-11 -15 -7 -15 26 l1 39 24 -40 c14 -22 25 -44 25 -48z m-255 54 c28 -10 54
-19 60 -19 5 0 11 -5 13 -11 5 -14 -55 -15 -63 -1 -3 6 -17 10 -29 10 -24 0
-96 26 -96 35 0 12 69 3 115 -14z m121 -28 c8 -3 14 -10 14 -17 0 -6 -12 2
-25 17 -15 17 -22 33 -18 40 5 8 9 4 11 -11 2 -13 10 -26 18 -29z m-535 -82
c-5 -3 -11 -20 -13 -36 -4 -25 -6 -27 -12 -12 -5 11 -3 35 5 59 12 37 13 38
21 17 5 -13 5 -25 -1 -28z m246 34 c9 -24 -1 -27 -15 -5 -8 13 -8 20 -2 20 6
0 13 -7 17 -15z m-285 -119 c0 -15 -4 -31 -9 -35 -6 -3 -23 -30 -39 -59 -32
-60 -96 -133 -132 -152 -13 -6 -25 -10 -27 -8 -2 2 28 44 66 93 37 50 68 97
69 105 0 13 1 13 10 0 14 -22 42 53 39 104 -1 23 -1 48 1 56 3 19 21 -65 22
-104z m258 48 c0 -23 17 -63 32 -74 12 -9 40 -82 34 -88 -7 -6 23 -42 36 -42
4 0 6 12 3 28 -5 26 -5 26 5 3 6 -13 8 -26 6 -29 -9 -8 64 -61 102 -73 20 -6
41 -15 47 -20 16 -16 22 -10 17 19 -3 20 -2 24 7 16 7 -6 13 -21 14 -34 1 -13
9 -25 19 -28 35 -9 18 -24 -19 -17 -48 8 -153 55 -153 67 0 5 -4 7 -9 4 -5 -3
-12 1 -15 10 -3 8 -10 13 -16 9 -5 -3 -16 8 -25 25 -18 35 -37 40 -31 8 6 -35
17 -105 22 -136 2 -15 8 -119 13 -232 12 -270 15 -284 93 -391 26 -36 48 -69
48 -74 0 -14 -60 56 -100 117 -49 74 -58 129 -65 378 -3 107 -12 234 -19 282
-7 48 -9 85 -5 83 3 -3 9 4 12 15 6 22 -8 37 -17 18 -3 -7 -2 0 1 16 4 19 2
27 -4 23 -6 -4 -16 6 -22 21 -15 37 -30 133 -19 126 4 -3 8 -16 8 -30z m-1147
-129 c-2 -135 -3 -146 -15 -139 -11 7 -10 -24 2 -47 8 -14 8 -19 -1 -17 -7 2
-31 -33 -53 -77 -23 -44 -46 -85 -52 -92 -19 -20 -95 -173 -90 -181 2 -4 -2
-16 -11 -27 -13 -19 -14 -18 -7 10 3 17 18 63 31 104 13 40 22 75 20 78 -13
12 -83 -118 -93 -174 -3 -18 -11 -36 -16 -39 -15 -9 -4 82 15 132 18 47 92
160 140 213 72 80 109 194 108 336 0 67 2 77 12 60 8 -13 11 -61 10 -140z
m1357 134 c0 -24 -23 -21 -28 4 -2 10 3 17 12 17 10 0 16 -9 16 -21z m192 -87
c19 -23 0 -25 -28 -3 -33 26 -43 16 -45 -44 -1 -28 -3 -33 -6 -15 -3 14 -10
28 -15 31 -6 4 -4 20 7 43 l17 36 30 -18 c16 -9 34 -23 40 -30z m-1610 -54 c1
-41 -3 -82 -9 -92 -6 -11 -9 15 -10 85 0 64 3 97 9 91 5 -5 10 -43 10 -84z
m955 -5 c-3 -10 -5 -4 -5 12 0 17 2 24 5 18 2 -7 2 -21 0 -30z m474 5 c8 -15
8 -18 0 -14 -6 4 -16 16 -22 28 -8 15 -8 18 0 14 6 -4 16 -16 22 -28z m-1455
-44 c-4 -9 -9 -15 -11 -12 -3 3 -3 13 1 22 4 9 9 15 11 12 3 -3 3 -13 -1 -22z
m-16 -121 c-11 -17 -11 -17 -6 0 3 10 7 28 7 40 2 22 2 22 6 0 2 -12 -1 -30
-7 -40z m-75 -45 c-10 -51 -13 -63 -15 -65 -2 -2 -3 -6 -4 -10 -4 -16 -38 -75
-41 -71 -4 4 39 150 50 167 12 21 17 11 10 -21z m223 -9 c-12 -23 -47 -67 -76
-98 l-54 -56 39 50 c22 28 54 71 72 98 39 58 50 62 19 6z m863 4 c13 -16 12
-17 -3 -4 -10 7 -18 15 -18 17 0 8 8 3 21 -13z m182 2 c-3 -9 -8 -14 -10 -11
-3 3 -2 9 2 15 9 16 15 13 8 -4z m243 -68 c30 -56 125 -300 119 -305 -7 -7 -4
-13 -80 143 -37 77 -72 148 -77 159 -7 13 -7 16 1 12 15 -10 13 5 -4 28 -8 11
-15 24 -15 29 0 14 39 -32 56 -66z m-420 -39 c21 -41 12 -34 -26 20 -24 34
-27 41 -11 27 13 -11 29 -32 37 -47z m595 5 c8 -55 8 -76 -1 -67 -14 14 -21
74 -9 74 5 0 10 -3 10 -7z m-1608 -87 c-10 -13 -19 -23 -21 -21 -5 5 22 45 31
45 4 0 0 -11 -10 -24z m-490 -11 c-16 -22 -33 -32 -33 -20 0 9 34 45 43 45 4
0 0 -11 -10 -25z m796 -127 c43 -65 46 -93 5 -44 -14 15 -28 26 -31 22 -8 -8
-32 26 -33 47 0 9 -6 17 -14 17 -7 0 -20 8 -27 18 -13 16 -13 16 5 2 18 -14
18 -13 11 8 -7 23 -6 23 18 7 14 -9 43 -43 66 -77z m236 2 c11 -21 13 -36 6
-48 -9 -16 -10 -16 -16 1 -4 9 -13 17 -20 17 -11 0 -14 28 -6 58 4 12 23 -4
36 -28z m-404 -82 c16 -30 3 -20 -27 20 -23 30 -24 33 -5 17 13 -11 27 -28 32
-37z m376 -7 c-3 -14 -8 -36 -12 -48 -5 -14 -3 -23 4 -23 6 0 14 12 17 26 l6
25 20 -20 c19 -21 34 -28 24 -12 -9 13 52 25 67 13 7 -5 26 -12 42 -15 28 -5
47 -9 115 -23 21 -5 22 -7 8 -15 -10 -6 -26 -5 -43 1 -14 5 -36 10 -48 10 -27
-1 -67 -33 -67 -53 0 -8 -6 -19 -12 -25 -16 -12 -108 -32 -149 -32 -32 0 -32
3 -9 85 5 17 12 56 16 87 3 34 10 55 16 52 6 -4 8 -18 5 -33z m654 -10 c-14
-25 -14 -44 -1 -36 6 3 10 3 10 0 0 -11 -23 -50 -34 -57 -6 -4 -7 -10 -3 -15
5 -4 11 -3 15 2 4 6 15 16 25 24 16 12 17 12 10 -5 -3 -10 -22 -37 -40 -59
-18 -21 -37 -53 -42 -70 -9 -28 -9 -28 -10 -5 -1 14 8 40 19 58 28 46 25 52
-8 12 -31 -36 -49 -29 -28 11 6 13 20 44 30 69 23 59 59 116 64 102 2 -6 -1
-20 -7 -31z m-896 -149 c-5 -6 -115 120 -115 132 0 4 27 -23 60 -60 33 -37 58
-70 55 -72z m-418 46 c-3 -7 -5 -2 -5 12 0 14 2 19 5 13 2 -7 2 -19 0 -25z
m560 -10 c-3 -8 -6 -5 -6 6 -1 11 2 17 5 13 3 -3 4 -12 1 -19z m-211 -85 c67
-72 70 -84 7 -24 -55 53 -79 81 -68 81 4 0 32 -26 61 -57z m743 -22 c-23 -42
-39 -52 -39 -27 0 8 -6 17 -12 19 -7 3 -3 6 10 6 12 1 26 9 29 19 7 18 25 34
31 27 2 -2 -6 -22 -19 -44z m246 29 c-3 -11 -2 -20 3 -20 7 0 7 -10 2 -27 -5
-16 -13 -43 -17 -60 l-8 -33 -12 26 c-10 22 -10 25 4 20 13 -6 14 -4 3 10 -11
13 -11 17 -1 24 8 4 11 13 7 18 -9 14 3 62 16 62 5 0 6 -9 3 -20z m-155 -43
c-1 -28 -29 -81 -30 -54 0 9 6 27 13 38 10 17 9 23 -1 26 -6 3 -10 9 -6 14 9
15 24 0 24 -24z m-971 -61 c18 -36 31 -69 28 -73 -4 -3 -10 3 -14 13 -4 10
-19 37 -33 59 -34 51 -44 78 -28 73 7 -3 28 -35 47 -72z m133 -3 c17 -18 37
-33 45 -33 7 0 13 -4 13 -9 0 -4 14 -25 30 -46 35 -45 31 -59 -6 -24 l-27 24
13 -25 c7 -14 24 -37 38 -52 14 -16 21 -28 15 -28 -15 0 -84 74 -118 125 -15
22 -37 51 -49 64 -11 13 -15 21 -9 17 9 -5 11 -2 7 8 -3 9 -10 13 -15 10 -10
-6 -12 9 -3 19 7 7 23 -5 66 -50z m82 1 c5 -14 4 -15 -9 -4 -17 14 -19 20 -6
20 5 0 12 -7 15 -16z m1051 6 c-3 -5 -11 -10 -16 -10 -6 0 -7 5 -4 10 3 6 11
10 16 10 6 0 7 -4 4 -10z m30 -91 c0 -29 -4 -48 -10 -46 -5 2 -9 18 -7 35 2
18 -1 32 -7 32 -6 0 -11 5 -11 10 0 6 7 10 16 10 14 0 14 3 3 18 -11 15 -11
15 1 4 9 -8 15 -32 15 -63z m-71 45 c9 -3 16 -10 16 -14 0 -10 -38 -1 -46 11
-6 10 7 12 30 3z m126 -4 c0 -5 -5 -10 -11 -10 -5 0 -7 5 -4 10 3 6 8 10 11
10 2 0 4 -4 4 -10z m-174 -45 c1 -8 -2 -15 -7 -15 -5 0 -9 5 -9 11 0 5 -4 7
-10 4 -5 -3 -10 -2 -10 4 0 10 22 21 29 14 3 -2 6 -10 7 -18z m-1301 -97 c-4
-35 -8 -72 -10 -83 -2 -11 -4 -27 -5 -35 -1 -8 -5 -3 -10 12 -5 18 -3 53 6 95
8 38 14 69 14 70 0 2 3 3 6 3 4 0 4 -28 -1 -62z m1111 17 c19 -20 34 -41 34
-48 -1 -6 -10 -1 -21 13 -11 14 -29 35 -40 48 -34 36 -10 25 27 -13z m230 0
c-14 -14 -16 -14 -16 -2 0 9 6 17 13 20 19 7 21 -1 3 -18z m-681 -55 c3 -5 2
-10 -4 -10 -5 0 -13 5 -16 10 -3 6 -2 10 4 10 5 0 13 -4 16 -10z m775 -11 c0
-6 -4 -7 -10 -4 -5 3 -10 11 -10 16 0 6 5 7 10 4 6 -3 10 -11 10 -16z m-374
-14 c3 -14 11 -25 18 -25 6 0 16 -8 21 -19 6 -10 22 -36 36 -57 26 -39 42 -74
34 -74 -2 0 -25 27 -50 60 -25 33 -52 60 -58 60 -7 0 -20 14 -30 32 -14 25
-15 29 -2 18 8 -7 19 -9 23 -5 4 4 1 10 -5 12 -15 5 -17 23 -3 23 5 0 12 -11
16 -25z m59 15 c3 -5 1 -10 -4 -10 -6 0 -11 5 -11 10 0 6 2 10 4 10 3 0 8 -4
11 -10z m-1622 -17 c-7 -2 -19 -2 -25 0 -7 3 -2 5 12 5 14 0 19 -2 13 -5z
m1522 -43 c-3 -5 -11 -10 -16 -10 -6 0 -7 5 -4 10 3 6 11 10 16 10 6 0 7 -4 4
-10z m745 -19 c0 -6 -4 -13 -10 -16 -5 -3 -10 1 -10 9 0 9 5 16 10 16 6 0 10
-4 10 -9z m-699 -17 c9 -11 8 -14 -9 -14 -12 0 -23 -9 -27 -20 -7 -22 -20 -26
-31 -8 -4 6 -3 8 3 5 6 -4 13 2 16 13 3 11 1 20 -5 20 -5 0 -7 4 -4 8 8 13 44
11 57 -4z m-1 -34 c0 -5 -2 -10 -4 -10 -3 0 -8 5 -11 10 -3 6 -1 10 4 10 6 0
11 -4 11 -10z m694 -22 c-4 -6 -10 -5 -15 3 -14 22 -10 33 6 19 8 -7 12 -17 9
-22z m-719 -28 c8 -13 -5 -13 -25 0 -13 8 -13 10 2 10 9 0 20 -4 23 -10z
m-1018 -47 c32 -38 40 -53 26 -53 -9 0 -73 75 -73 84 0 14 17 3 47 -31z m993
7 c0 -5 -4 -10 -10 -10 -5 0 -10 5 -10 10 0 6 5 10 10 10 6 0 10 -4 10 -10z
m27 -4 c-3 -7 -1 -18 5 -24 6 -6 6 -12 -2 -17 -20 -12 -33 10 -21 34 13 23 26
29 18 7z m-447 -6 c0 -5 -5 -10 -11 -10 -5 0 -7 5 -4 10 3 6 8 10 11 10 2 0 4
-4 4 -10z m-653 -16 c-3 -3 -12 -4 -19 -1 -8 3 -5 6 6 6 11 1 17 -2 13 -5z"/>
<path d="M1520 2892 c6 -13 14 -21 18 -18 3 4 -2 14 -12 24 -18 16 -18 16 -6
-6z"/>
<path d="M1508 2515 c2 -19 6 -35 8 -35 2 0 4 16 4 35 0 19 -4 35 -8 35 -4 0
-6 -16 -4 -35z"/>
<path d="M1720 2522 c6 -13 14 -21 18 -18 3 4 -2 14 -12 24 -18 16 -18 16 -6
-6z"/>
<path d="M1560 2442 c0 -5 8 -17 18 -28 10 -10 21 -28 25 -38 4 -10 10 -16 14
-12 4 3 -3 20 -15 36 -12 16 -22 34 -22 40 0 5 -4 10 -10 10 -5 0 -10 -4 -10
-8z"/>
<path d="M1770 2425 c0 -9 30 -65 35 -65 7 0 -16 60 -26 66 -5 3 -9 2 -9 -1z"/>
<path d="M1843 2324 c12 -19 28 -45 34 -57 9 -15 13 -17 13 -7 0 18 -51 100
-62 100 -4 0 3 -16 15 -36z"/>
<path d="M1870 2130 c0 -5 5 -10 11 -10 5 0 7 5 4 10 -3 6 -8 10 -11 10 -2 0
-4 -4 -4 -10z"/>
<path d="M1850 2106 c0 -2 7 -7 16 -10 8 -3 12 -2 9 4 -6 10 -25 14 -25 6z"/>
<path d="M1876 2045 c10 -8 24 -14 29 -14 6 0 1 6 -9 14 -11 8 -24 15 -30 15
-5 0 -1 -7 10 -15z"/>
<path d="M1960 2045 c7 -8 17 -15 22 -15 6 0 5 7 -2 15 -7 8 -17 15 -22 15 -6
0 -5 -7 2 -15z"/>
<path d="M2018 2030 c16 -29 40 -43 28 -17 -3 6 -9 20 -12 30 -4 9 -12 17 -20
17 -10 0 -9 -7 4 -30z"/>
<path d="M1972 1994 c18 -19 40 -39 49 -44 14 -8 15 -5 5 30 -9 37 -26 55 -26
29 0 -7 -10 -5 -25 5 -38 25 -39 19 -3 -20z"/>
<path d="M1945 1890 c3 -5 8 -10 11 -10 2 0 4 5 4 10 0 6 -5 10 -11 10 -5 0
-7 -4 -4 -10z"/>
<path d="M1682 1559 c2 -6 8 -10 13 -10 5 0 11 4 13 10 2 6 -4 11 -13 11 -9 0
-15 -5 -13 -11z"/>
<path d="M1713 1535 c-8 -22 6 -33 17 -15 13 20 12 30 0 30 -6 0 -13 -7 -17
-15z"/>
<path d="M1738 1487 c-12 -25 -13 -46 -7 -90 10 -77 19 -84 18 -16 -1 73 0 81
9 75 4 -2 8 11 8 30 0 43 -8 43 -28 1z"/>
<path d="M637 1268 c-27 -47 -36 -85 -17 -73 17 10 51 85 48 103 -2 11 -12 1
-31 -30z"/>
<path d="M2055 3373 c11 -3 24 -9 30 -14 14 -14 25 -11 25 6 0 11 -10 15 -37
14 -22 -1 -29 -3 -18 -6z"/>
<path d="M2130 3369 c0 -7 11 -8 29 -4 38 8 101 -4 101 -20 0 -6 -11 -17 -25
-23 -34 -16 -34 -16 -27 10 4 19 2 20 -19 14 -13 -4 -34 -7 -47 -7 -22 1 -24
-6 -13 -59 1 -3 10 6 20 20 l19 25 7 -28 c8 -30 15 -33 33 -15 9 9 13 7 18 -6
4 -12 -1 -22 -15 -33 l-22 -15 23 -12 c13 -7 42 -10 66 -8 26 3 42 0 42 -7 0
-6 -8 -10 -17 -9 -36 3 -63 -2 -63 -12 0 -5 7 -10 15 -10 20 0 19 -18 -2 -22
-15 -3 -15 -4 1 -20 20 -21 14 -23 -13 -6 -21 13 -56 4 -46 -12 3 -5 15 -10
25 -10 10 0 22 -5 26 -11 5 -9 -1 -10 -20 -5 -15 4 -26 2 -26 -4 0 -5 10 -10
23 -11 12 0 17 -3 11 -5 -7 -3 -10 -13 -7 -24 4 -16 8 -17 24 -7 24 15 34 4
18 -22 -16 -25 -5 -39 17 -21 24 21 35 -5 17 -41 -8 -17 -12 -36 -9 -44 3 -9
0 -15 -9 -15 -8 0 -19 -8 -24 -17 -9 -16 -12 -16 -20 -3 -8 12 -13 12 -23 2
-9 -9 -9 -15 0 -24 18 -18 14 -28 -10 -28 -18 0 -20 -2 -9 -9 8 -5 21 -7 29
-3 11 4 14 1 9 -12 -6 -16 11 -105 23 -116 3 -3 6 -22 8 -44 2 -33 0 -37 -13
-26 -8 7 -15 19 -15 26 0 8 -6 11 -15 8 -13 -5 -13 -37 0 -52 6 -7 65 -20 61
-13 -3 4 4 15 15 24 18 16 19 16 21 -16 1 -17 1 -43 0 -57 -1 -13 4 -28 11
-33 12 -8 -25 -3 -55 8 -18 7 -42 -10 -34 -24 11 -17 26 -13 26 7 1 14 4 13
20 -7 19 -22 21 -23 45 -7 23 15 25 22 25 101 0 75 -2 84 -20 90 -11 3 -20 10
-20 15 0 5 9 12 20 15 17 5 20 15 20 61 0 39 -4 56 -15 60 -8 4 -12 11 -9 16
4 6 10 5 15 -3 5 -9 9 8 9 44 0 51 -3 59 -22 67 l-23 9 23 0 c26 1 29 19 5 28
-38 14 -45 53 -9 46 24 -5 24 -5 25 96 l1 101 -26 0 c-17 0 -24 4 -21 13 5 14
-16 49 -30 48 -7 -1 -8 4 -4 29 2 15 41 12 41 -4 0 -7 9 -16 20 -19 18 -5 20
0 20 44 l0 49 -115 0 c-76 0 -115 -4 -115 -11z m140 -135 c0 -2 -7 -4 -15 -4
-8 0 -15 4 -15 10 0 5 7 7 15 4 8 -4 15 -8 15 -10z m70 -169 c0 -2 -7 -5 -15
-9 -9 -3 -15 0 -15 9 0 9 6 12 15 9 8 -4 15 -7 15 -9z m-60 -261 c0 -17 -22
-14 -28 4 -2 7 3 12 12 12 9 0 16 -7 16 -16z m47 -20 c-9 -9 -28 6 -21 18 4 6
10 6 17 -1 6 -6 8 -13 4 -17z"/>
<path d="M2050 3319 c0 -5 5 -7 10 -4 6 3 10 8 10 11 0 2 -4 4 -10 4 -5 0 -10
-5 -10 -11z"/>
<path d="M2085 3319 c-11 -16 18 -99 33 -99 12 0 12 3 2 15 -6 8 -9 19 -5 25
3 5 -1 13 -9 16 -11 4 -14 14 -10 30 6 25 0 32 -11 13z"/>
<path d="M2035 3290 c3 -5 10 -10 16 -10 5 0 9 5 9 10 0 6 -7 10 -16 10 -8 0
-12 -4 -9 -10z"/>
<path d="M2320 3261 c0 -5 7 -12 16 -15 22 -9 24 -8 24 9 0 8 -9 15 -20 15
-11 0 -20 -4 -20 -9z"/>
<path d="M1552 3218 c13 -18 32 -41 44 -53 12 -11 19 -27 17 -35 -4 -13 -3
-13 6 0 8 12 13 12 23 2 6 -6 16 -12 21 -12 5 0 -17 29 -48 65 -61 69 -105 92
-63 33z"/>
<path d="M2056 3221 c-3 -5 1 -11 9 -15 9 -3 15 0 15 9 0 16 -16 20 -24 6z"/>
<path d="M2153 3203 c-17 -6 -16 -28 2 -43 12 -10 15 -10 15 3 0 8 3 22 6 31
6 16 0 19 -23 9z"/>
<path d="M2070 3190 c-11 -7 -12 -12 -3 -21 13 -13 33 -4 33 17 0 16 -9 18
-30 4z"/>
<path d="M2206 3193 c-11 -11 -6 -23 9 -23 8 0 15 4 15 9 0 13 -16 22 -24 14z"/>
<path d="M2085 3129 c-4 -6 -4 -13 -1 -16 8 -8 36 5 36 17 0 13 -27 13 -35 -1z"/>
<path d="M2168 3053 c6 -2 18 -2 25 0 6 3 1 5 -13 5 -14 0 -19 -2 -12 -5z"/>
<path d="M2100 3036 c0 -15 24 -28 34 -19 13 14 5 33 -14 33 -11 0 -20 -6 -20
-14z"/>
<path d="M2160 3020 c0 -5 5 -10 11 -10 5 0 7 5 4 10 -3 6 -8 10 -11 10 -2 0
-4 -4 -4 -10z"/>
<path d="M2191 2981 c-8 -5 -11 -16 -8 -25 7 -19 48 -21 65 -4 8 8 12 9 12 1
0 -6 -5 -13 -12 -15 -13 -5 -4 -38 10 -38 12 0 37 58 29 66 -3 3 -21 6 -41 7
-19 0 -33 5 -30 9 7 11 -7 10 -25 -1z"/>
<path d="M2125 2960 c-3 -5 -16 -11 -28 -11 -20 -1 -20 -2 -2 -6 11 -3 24 -9
30 -14 17 -17 35 -9 35 16 0 25 -23 35 -35 15z"/>
<path d="M579 2943 c-13 -16 -12 -17 4 -4 9 7 17 15 17 17 0 8 -8 3 -21 -13z"/>
<path d="M555 2910 c-3 -5 -1 -10 4 -10 6 0 11 5 11 10 0 6 -2 10 -4 10 -3 0
-8 -4 -11 -10z"/>
<path d="M1821 2897 c7 -15 16 -27 21 -27 14 0 9 16 -13 36 -21 19 -21 19 -8
-9z"/>
<path d="M2098 2903 c7 -3 16 -2 19 1 4 3 -2 6 -13 5 -11 0 -14 -3 -6 -6z"/>
<path d="M2148 2892 c-22 -4 -24 -22 -3 -22 8 0 15 -9 15 -20 0 -20 11 -26 23
-13 4 3 3 11 -2 17 -5 6 -10 18 -12 26 -2 9 -12 14 -21 12z"/>
<path d="M510 2840 c-6 -11 -7 -20 -2 -20 6 0 12 9 15 20 3 11 3 20 1 20 -2 0
-8 -9 -14 -20z"/>
<path d="M1850 2851 c0 -5 5 -13 10 -16 6 -3 10 -2 10 4 0 5 -4 13 -10 16 -5
3 -10 2 -10 -4z"/>
<path d="M2115 2839 c-4 -6 -5 -13 -2 -16 7 -7 27 6 27 18 0 12 -17 12 -25 -2z"/>
<path d="M496 2801 c-4 -7 -5 -15 -2 -18 9 -9 19 4 14 18 -4 11 -6 11 -12 0z"/>
<path d="M447 2715 c-20 -91 -21 -122 -1 -77 14 32 31 152 22 152 -3 0 -12
-34 -21 -75z"/>
<path d="M2081 2783 c0 -4 4 -17 9 -28 8 -19 9 -19 9 2 1 12 -3 25 -9 28 -5 3
-10 3 -9 -2z"/>
<path d="M2175 2770 c-5 -8 -1 -18 9 -26 11 -8 13 -14 7 -19 -6 -3 -11 -15
-11 -27 0 -13 -5 -18 -14 -15 -19 7 -31 -40 -15 -59 13 -16 39 -19 39 -4 0 6
-7 10 -15 10 -8 0 -15 2 -15 6 0 15 47 84 58 84 17 0 15 7 -12 36 -17 19 -26
23 -31 14z"/>
<path d="M486 2744 c-3 -9 -6 -23 -6 -32 1 -12 5 -10 15 8 8 14 14 28 15 33 0
13 -18 7 -24 -9z"/>
<path d="M2135 2750 c-3 -5 1 -10 10 -10 9 0 13 5 10 10 -3 6 -8 10 -10 10 -2
0 -7 -4 -10 -10z"/>
<path d="M2135 2720 c3 -5 8 -10 11 -10 2 0 4 5 4 10 0 6 -5 10 -11 10 -5 0
-7 -4 -4 -10z"/>
<path d="M1946 2678 c4 -12 1 -18 -7 -19 -8 0 -3 -5 10 -10 32 -13 33 -9 10
21 -11 15 -17 18 -13 8z"/>
<path d="M1796 2667 c3 -10 9 -15 12 -12 3 3 0 11 -7 18 -10 9 -11 8 -5 -6z"/>
<path d="M2095 2651 c-3 -5 -1 -12 5 -16 5 -3 10 1 10 9 0 18 -6 21 -15 7z"/>
<path d="M1818 2634 c-15 -14 -8 -43 16 -68 13 -15 26 -26 30 -26 13 0 5 28
-13 44 -11 10 -21 27 -23 38 -2 11 -6 16 -10 12z"/>
<path d="M2066 2583 c10 -40 14 -41 14 -5 0 18 -5 32 -10 32 -6 0 -8 -11 -4
-27z"/>
<path d="M2110 2595 c0 -8 5 -15 10 -15 6 0 10 7 10 15 0 8 -4 15 -10 15 -5 0
-10 -7 -10 -15z"/>
<path d="M424 2569 c-3 -6 -1 -16 5 -22 8 -8 11 -5 11 11 0 24 -5 28 -16 11z"/>
<path d="M2188 2493 c7 -3 16 -2 19 1 4 3 -2 6 -13 5 -11 0 -14 -3 -6 -6z"/>
<path d="M590 2447 c0 -20 5 -39 11 -42 7 -5 8 5 3 32 -9 51 -14 54 -14 10z"/>
<path d="M2200 2440 c0 -11 -5 -20 -11 -20 -5 0 -7 -5 -3 -11 4 -8 9 -8 17 0
12 12 38 15 36 4 -1 -5 -1 -17 0 -28 1 -18 3 -17 15 5 13 25 3 55 -15 44 -5
-3 -12 2 -15 10 -9 23 -24 20 -24 -4z"/>
<path d="M2347 2453 c-5 -7 -5 -17 -2 -23 3 -5 2 -10 -3 -10 -10 0 -32 -44
-32 -65 0 -15 29 -55 40 -55 3 0 6 16 7 35 2 38 -10 46 -26 18 -10 -17 -10
-17 -11 0 0 9 9 26 21 38 13 13 19 30 17 47 -2 18 -6 23 -11 15z"/>
<path d="M2125 2440 c-3 -5 1 -10 10 -10 9 0 13 5 10 10 -3 6 -8 10 -10 10 -2
0 -7 -4 -10 -10z"/>
<path d="M2292 2411 c-22 -19 -29 -41 -13 -41 10 0 45 50 38 56 -2 2 -14 -4
-25 -15z"/>
<path d="M2160 2380 c0 -5 5 -10 10 -10 6 0 10 5 10 10 0 6 -4 10 -10 10 -5 0
-10 -4 -10 -10z"/>
<path d="M2145 2341 c-3 -5 -2 -12 3 -15 5 -3 9 1 9 9 0 17 -3 19 -12 6z"/>
<path d="M2255 2340 c-3 -5 -2 -10 4 -10 5 0 13 5 16 10 3 6 2 10 -4 10 -5 0
-13 -4 -16 -10z"/>
<path d="M2276 2294 c-11 -27 -7 -37 9 -24 16 14 20 40 6 40 -5 0 -12 -7 -15
-16z"/>
<path d="M2338 2253 c7 -3 16 -2 19 1 4 3 -2 6 -13 5 -11 0 -14 -3 -6 -6z"/>
<path d="M1058 2043 c-19 -5 -38 -52 -38 -94 0 -23 9 -34 40 -54 38 -24 82
-27 95 -6 2 4 -9 34 -25 67 -17 32 -30 67 -30 77 0 17 -9 19 -42 10z"/>
<path d="M675 1930 c3 -5 8 -10 11 -10 2 0 4 5 4 10 0 6 -5 10 -11 10 -5 0 -7
-4 -4 -10z"/>
<path d="M1220 1930 c0 -5 7 -10 16 -10 8 0 12 5 9 10 -3 6 -10 10 -16 10 -5
0 -9 -4 -9 -10z"/>
<path d="M700 1856 c0 -2 7 -7 16 -10 8 -3 12 -2 9 4 -6 10 -25 14 -25 6z"/>
<path d="M1109 1786 c-2 -3 -29 -7 -59 -9 -93 -8 -105 -19 -72 -68 48 -72 70
-89 111 -89 23 0 41 2 41 4 0 3 -13 18 -30 34 -33 33 -38 52 -15 52 8 0 15 5
15 11 0 5 -4 7 -10 4 -5 -3 -10 -2 -10 3 0 12 35 22 77 22 17 0 34 4 37 9 9
14 -72 39 -85 27z"/>
<path d="M1248 1763 c36 -4 42 -7 31 -19 -15 -18 0 -19 56 -2 38 11 39 12 15
19 -14 4 -52 7 -85 6 -48 0 -51 -1 -17 -4z"/>
<path d="M1849 250 c-20 -13 -5 -22 21 -12 18 7 20 10 8 14 -8 4 -21 2 -29 -2z"/>
<path d="M1825 130 c-3 -5 -1 -10 4 -10 6 0 11 5 11 10 0 6 -2 10 -4 10 -3 0
-8 -4 -11 -10z"/>
<path d="M1843 76 c-1 -27 2 -34 13 -29 9 3 14 16 12 31 -5 38 -23 37 -25 -2z"/>
</g>
</svg>
